<?xml version="1.0" encoding="iso-8859-1"?>
<!-- Generator: Adobe Illustrator 17.1.0, SVG Export Plug-In . SVG Version: 6.00 Build 0)  -->
<!DOCTYPE svg PUBLIC "-//W3C//DTD SVG 1.1//EN" "http://www.w3.org/Graphics/SVG/1.1/DTD/svg11.dtd">
<svg version="1.1" id="Capa_1" xmlns="http://www.w3.org/2000/svg" xmlns:xlink="http://www.w3.org/1999/xlink" x="0px" y="0px"
	 viewBox="0 0 315.951 315.951" style="enable-background:new 0 0 315.951 315.951;" xml:space="preserve">
<path id="XMLID_422_" d="M157.973,203.851c10.015,0,19.705-2.04,28.8-6.062c5.556-2.458,8.068-8.954,5.611-14.51
	c-2.458-5.556-8.954-8.067-14.509-5.61c-6.275,2.774-12.971,4.182-19.902,4.182c-27.163,0-49.262-22.1-49.262-49.264
	c0-27.163,22.099-49.262,49.262-49.262c27.143,0,48.782,21.723,49.265,49.453c0.058,3.326-0.589,7.716-4.001,9.738
	c-2.398,1.421-5.799,1.431-8.271,0.022c-2.204-1.255-3.275-3.346-3.275-6.392v-16.456c0-6.075-4.925-11-11-11
	c-0.521,0-1.034,0.036-1.535,0.106c-5.792-5.501-13.616-8.881-22.215-8.881c-17.8,0-32.282,14.482-32.282,32.283
	s14.481,32.282,32.282,32.282c7.938,0,15.217-2.88,20.845-7.65c1.821,1.854,3.925,3.476,6.292,4.823
	c9.299,5.298,21.224,5.213,30.381-0.215c9.613-5.699,15-16.285,14.778-29.045c-0.331-19.012-7.811-36.828-21.062-50.169
	c-13.388-13.479-31.216-20.901-50.2-20.901c-39.294,0-71.262,31.968-71.262,71.262C86.71,171.882,118.679,203.851,157.973,203.851z
	 M156.939,142.482c-5.669,0-10.282-4.612-10.282-10.282s4.612-10.283,10.282-10.283s10.282,4.613,10.282,10.283
	S162.608,142.482,156.939,142.482z M285.733,0H30.218c-6.075,0-11,4.925-11,11v293.951c0,4.003,2.174,7.689,5.677,9.626
	c1.659,0.918,3.493,1.374,5.323,1.374c2.034,0,4.064-0.563,5.849-1.684L125.23,258.3h160.503c6.075,0,11-4.925,11-11V11
	C296.733,4.925,291.809,0,285.733,0z M274.733,236.3h-152.67c-2.069,0-4.096,0.583-5.848,1.684l-74.998,47.075V22h233.516V236.3z"/>
<g>
</g>
<g>
</g>
<g>
</g>
<g>
</g>
<g>
</g>
<g>
</g>
<g>
</g>
<g>
</g>
<g>
</g>
<g>
</g>
<g>
</g>
<g>
</g>
<g>
</g>
<g>
</g>
<g>
</g>
</svg>
